{"title":"Stay 2013 HDRip XviD titler","uid":9602568,"size":762745854,"categoryP":"video","categoryS":"movies","magnet":"?xt=urn:btih:fad4415c05c9d9fb1beea8431f9383d30c11b6e8&amp;dn=Stay+2013+HDRip+XviD+titler&amp;tr=udp%3A%2F%2Ftracker.openbittorrent.com%3A80&amp;tr=udp%3A%2F%2Fopen.demonii.com%3A1337&amp;tr=udp%3A%2F%2Ftracker.coppersurfer.tk%3A6969&amp;tr=udp%3A%2F%2Fexodus.desync.com%3A6969","seeders":1,"leechers":0,"uploader":"movieZ.freak","files":4,"time":1392147815,"description":"SOURCE: Stay 2013 720p WEB-DL H264 - PublicHD\n\n\n &lt;a href=&quot;\nhttp://www.imdb.com/title/tt2234032/&quot; rel=&quot;nofollow&quot; target=&quot;_NEW&quot;&gt;\nhttp://www.imdb.com/title/tt2234032/&lt;/a&gt;\n\n\n &lt;a href=&quot;\nhttp://www.rottentomatoes.com/m/stay_2013/&quot; rel=&quot;nofollow&quot; target=&quot;_NEW&quot;&gt;\nhttp://www.rottentomatoes.com/m/stay_2013/&lt;/a&gt;\n\n\n &lt;a href=&quot;\nhttp://en.wikipedia.org/wiki/Stay_%282013_film%29&quot; rel=&quot;nofollow&quot; target=&quot;_NEW&quot;&gt;\nhttp://en.wikipedia.org/wiki/Stay_%282013_film%29&lt;/a&gt;\n\n\n\n\n- SAMPLE: Yes\n\n\n- SUBTITLE: English\n\n\n- LANGUAGE / AUDIO: English\n\n\n\n\nSCREENSHOTS:\n-------------------    &lt;a href=&quot;\nhttp://someimage.com/as1j&quot; rel=&quot;nofollow&quot; target=&quot;_NEW&quot;&gt;\nhttp://someimage.com/as1j&lt;/a&gt;\n\n\n\nDIRECTOR: Wiebke von Carolsfeld\n\n\n\nCAST: Taylor Schilling, Aidan Quinn, Michael Ironside, Brian Gleeson, Carrie Crowley, Barry Keoghan, Nika McGuigan, Pascale Montpetit,...\n\n\n\nPLOT:\n-----------\nTaylor Schilling (&quot;Orange is the New Black&quot;) and Aidan Quinn (Legends of the Fall) deliver heartfelt performances as Abbey and Dermot, a couple struggling to find their way in life. After retreating to the rugged expanse of the Irish countryside, their happy existence is upended when Abbey discovers she's pregnant. Dermot, a long-since disgraced professor, has no interest in being a father. With their lives now at a crossroads, Abbey and Dermot's relationship hangs in the balance. They must both face the truth of who they are and which path in life to take that will finally lead them home.\n\n\n************************************\n\n- Duration: 1h 39mn\n\n- Bit rate: 858 Kbps\n\n- Res: 720 x 306\n\n- AR: 2.35:1\n\n- FPS: 23.976\n\n- Audio: AC3, 2 channels, 128Kbps\n\n************************************\n\n\nGeneral\n-------------\nFormat : AVI\nFormat/Info : Audio Video Interleave\nFile size : 705 MiB\nDuration : 1h 39mn\nOverall bit rate : 995 Kbps\nWriting library : VirtualDub build 35491\n\n\nVideo\n---------\nFormat : MPEG-4 Visual\nFormat profile : Advanced Simple@L5\nFormat settings, BVOP : 2\nFormat settings, QPel : No\nFormat settings, GMC : No warppoints\nFormat settings, Matrix : Default (H.263)\nCodec ID : XVID\nCodec ID/Hint : XviD\nDuration : 1h 39mn\nBit rate : 858 Kbps\nWidth : 720 pixels\nHeight : 306 pixels\nDisplay aspect ratio : 2.35:1\nFrame rate : 23.976 fps\nColor space : YUV\nChroma subsampling : 4:2:0\nBit depth : 8 bits\nScan type : Progressive\nCompression mode : Lossy\nBits/(Pixel*Frame) : 0.162\nStream size : 607 MiB (86%)\nWriting library : XviD 65\n\n\nAudio\n-------------\nFormat : AC-3\nFormat/Info : Audio Coding 3\nMode extension : CM (complete main)\nFormat settings, Endianness : Big\nCodec ID : 2000\nDuration : 1h 39mn\nBit rate mode : Constant\nBit rate : 128 Kbps\nChannel(s) : 2 channels\nChannel positions : Front: L R\nSampling rate : 48.0 KHz\nBit depth : 16 bits\nCompression mode : Lossy\nStream size : 90.7 MiB (13%)\nAlignment : Aligned on interleaves\nInterleave, duration : 42 ms (1.00 video frame)\nInterleave, preload duration : 512 ms","torrent":{"xt":"urn:btih:fad4415c05c9d9fb1beea8431f9383d30c11b6e8","amp;dn":"Stay+2013+HDRip+XviD+titler","amp;tr":["udp%3A%2F%2Ftracker.openbittorrent.com%3A80","udp%3A%2F%2Fopen.demonii.com%3A1337","udp%3A%2F%2Ftracker.coppersurfer.tk%3A6969","udp%3A%2F%2Fexodus.desync.com%3A6969"],"infoHash":"fad4415c05c9d9fb1beea8431f9383d30c11b6e8","infoHashBuffer":{"type":"Buffer","data":[250,212,65,92,5,201,217,251,27,238,168,67,31,147,131,211,12,17,182,232]},"announce":[],"urlList":[]}}